<svg xmlns="http://www.w3.org/2000/svg" viewBox="0 0 120.5 24.98"><defs><style>.cls-1{fill:#fff}</style></defs><g id="Layer_2" data-name="Layer 2"><g id="Layer_1-2" data-name="Layer 1"><path class="cls-1" d="M31.17 6.61h3.07V8A5.36 5.36 0 0136 6.72a5.27 5.27 0 012.11-.43 3.88 3.88 0 012.07.57 4 4 0 011.48 1.64 4.86 4.86 0 014.12-2.21 4.36 4.36 0 012.3.61 3.58 3.58 0 011.43 1.59 8.5 8.5 0 01.43 3.19v7.18h-3.1v-6.21a5.44 5.44 0 00-.51-2.83 1.79 1.79 0 00-1.56-.73 2.35 2.35 0 00-1.41.45 2.61 2.61 0 00-.93 1.24 7.78 7.78 0 00-.31 2.55v5.53H39v-5.93a8.4 8.4 0 00-.24-2.38 2.2 2.2 0 00-.73-1.1 1.94 1.94 0 00-1.18-.36 2.33 2.33 0 00-1.39.45 2.76 2.76 0 00-.94 1.28 8.1 8.1 0 00-.31 2.59v5.45h-3.04zm22.9-5.05a1.86 1.86 0 011.38.59A1.92 1.92 0 0156 3.57 1.92 1.92 0 0155.46 5a1.84 1.84 0 01-1.37.58 1.9 1.9 0 01-1.4-.58 2 2 0 01-.58-1.44 1.85 1.85 0 01.58-1.38 1.89 1.89 0 011.38-.62zm-1.54 5.05h3.07v12.25h-3.07zm4.76 0h3.57L63.29 10l2.4-3.34h3.51L65 12.38l4.71 6.48h-3.53l-2.92-4-2.9 4h-3.51l4.65-6.44zm26.02 2.48l-2.56 1.4a4.28 4.28 0 00-1.43-1 4.19 4.19 0 00-1.65-.3 3.87 3.87 0 00-2.79 1 3.53 3.53 0 00-1.07 2.64 3.41 3.41 0 001 2.55 3.7 3.7 0 002.69 1A3.93 3.93 0 0080.75 15l2.42 1.66a7.45 7.45 0 01-10.62.65 6.37 6.37 0 011.54-10.16 7.41 7.41 0 013.56-.86 7.29 7.29 0 013.28.71 6.17 6.17 0 012.38 2.09zm8.52-2.8a6.47 6.47 0 013.26.87 6.2 6.2 0 012.38 2.36 6.32 6.32 0 01.86 3.2 6.5 6.5 0 01-.86 3.28 6.34 6.34 0 01-2.35 2.36 6.54 6.54 0 01-3.28.85 6.14 6.14 0 01-4.5-1.88 6.23 6.23 0 01-1.86-4.55A6.19 6.19 0 0187.59 8a6.14 6.14 0 014.24-1.71zm0 2.9a3.13 3.13 0 00-2.38 1 3.51 3.51 0 00-1 2.55 3.61 3.61 0 00.95 2.59 3.13 3.13 0 002.38 1 3.19 3.19 0 002.4-1 3.54 3.54 0 001-2.57 3.55 3.55 0 00-.94-2.57 3.21 3.21 0 00-2.36-1zm8.29-2.58h2.63v1.54a3.29 3.29 0 011.14-1.38 2.73 2.73 0 011.56-.48 2.93 2.93 0 011.25.32l-1 2.65a2.13 2.13 0 00-.89-.27 1.42 1.42 0 00-1.2.87 8 8 0 00-.49 3.45v5.55h-3zm20.37 7.02h-9.87a3.24 3.24 0 001.14 2.07 3.56 3.56 0 002.37.77 4.11 4.11 0 003-1.2l2.59 1.22a6.2 6.2 0 01-2.32 2 7.24 7.24 0 01-3.21.66 6.33 6.33 0 01-4.69-1.82 6.19 6.19 0 01-1.82-4.56 6.36 6.36 0 011.81-4.65A6.06 6.06 0 01114 6.29a6.29 6.29 0 014.71 1.86A6.67 6.67 0 01120.5 13zm-3.07-2.43a3.16 3.16 0 00-1.2-1.66 3.5 3.5 0 00-2.09-.64 3.69 3.69 0 00-2.25.72 4 4 0 00-1.13 1.58zM0 25V0h25v25zm1.38-1.45h22.14V1.39H1.38z"/><path class="cls-1" d="M8.26 4.21v16.5H4.2V4.21zm2.17-.02h4.05V20.7h-4.05zM20.7 20.72h-4V4.21h4z"/></g></g></svg>