<?xml version="1.0" encoding="utf-8"?>
<!-- Generator: Adobe Illustrator 22.1.0, SVG Export Plug-In . SVG Version: 6.00 Build 0)  -->
<svg version="1.1" id="Layer_1" xmlns="http://www.w3.org/2000/svg" xmlns:xlink="http://www.w3.org/1999/xlink" x="0px" y="0px"
	 viewBox="0 0 38 38" style="enable-background:new 0 0 38 38;" xml:space="preserve">
<style type="text/css">
	.st0{fill:none;stroke:url(#SVGID_1_);stroke-width:1.1851;stroke-miterlimit:10;}
	.st1{fill:none;stroke:url(#SVGID_2_);stroke-width:1.1851;stroke-linecap:round;stroke-miterlimit:10;}
</style>
<g>
	<linearGradient id="SVGID_1_" gradientUnits="userSpaceOnUse" x1="4.4889" y1="19.0442" x2="30.0676" y2="19.0442">
		<stop  offset="0" style="stop-color:#54006A"/>
		<stop  offset="9.970063e-02" style="stop-color:#520971"/>
		<stop  offset="0.2656" style="stop-color:#4D2383"/>
		<stop  offset="0.4772" style="stop-color:#444CA2"/>
		<stop  offset="0.7263" style="stop-color:#3886CC"/>
		<stop  offset="0.9944" style="stop-color:#2ACCFF"/>
	</linearGradient>
	<path class="st0" d="M5.1,13.6v10.9c0,1,0.5,1.9,1.4,2.4l9.4,5.4c0.9,0.5,1.9,0.5,2.8,0l9.4-5.4c0.9-0.5,1.4-1.4,1.4-2.4V13.6
		c0-1-0.5-1.9-1.4-2.4l-9.4-5.4c-0.9-0.5-1.9-0.5-2.8,0l-9.4,5.4C5.6,11.7,5.1,12.6,5.1,13.6z"/>
	<linearGradient id="SVGID_2_" gradientUnits="userSpaceOnUse" x1="11.7648" y1="20.2317" x2="30.0676" y2="20.2317">
		<stop  offset="0" style="stop-color:#54006A"/>
		<stop  offset="9.970063e-02" style="stop-color:#520971"/>
		<stop  offset="0.2656" style="stop-color:#4D2383"/>
		<stop  offset="0.4772" style="stop-color:#444CA2"/>
		<stop  offset="0.7263" style="stop-color:#3886CC"/>
		<stop  offset="0.9944" style="stop-color:#2ACCFF"/>
	</linearGradient>
	<path class="st1" d="M20.3,19.7c0.7-0.7,0.7-1.8,0-2.5c-0.9-0.9-2.3-0.9-3.2,0c-1.1,1.1-1.1,2.9,0,4c1.4,1.4,3.6,1.4,4.9,0
		c1.7-1.7,1.7-4.5,0-6.2c-2.1-2.1-5.6-2.1-7.7,0c-2.7,2.7-2.7,7,0,9.7c3.3,3.3,8.7,3.3,12.1,0c1.8-1.8,2.8-4,3.1-6.3"/>
</g>
</svg>
