<?xml version="1.0" encoding="utf-8"?>
<!-- Generator: Adobe Illustrator 22.1.0, SVG Export Plug-In . SVG Version: 6.00 Build 0)  -->
<svg version="1.1" id="Layer_1" xmlns="http://www.w3.org/2000/svg" xmlns:xlink="http://www.w3.org/1999/xlink" x="0px" y="0px"
	 viewBox="0 0 38 38" style="enable-background:new 0 0 38 38;" xml:space="preserve">
<style type="text/css">
	.st0{fill:none;stroke:#FFFFFF;stroke-width:0.983;stroke-miterlimit:10;}
	.st1{fill:none;stroke:#FFFFFF;stroke-width:0.983;stroke-linecap:round;stroke-miterlimit:10;}
</style>
<g>
	<path class="st0" d="M7.2,14.5v9c0,0.8,0.4,1.6,1.2,2l7.8,4.5c0.7,0.4,1.6,0.4,2.3,0l7.8-4.5c0.7-0.4,1.2-1.2,1.2-2v-9
		c0-0.8-0.4-1.6-1.2-2L18.4,8c-0.7-0.4-1.6-0.4-2.3,0l-7.8,4.5C7.6,12.9,7.2,13.7,7.2,14.5z"/>
	<path class="st1" d="M19.8,19.6c0.6-0.6,0.6-1.5,0-2.1c-0.7-0.7-1.9-0.7-2.6,0c-0.9,0.9-0.9,2.4,0,3.3c1.1,1.1,3,1.1,4.1,0
		c1.4-1.4,1.4-3.7,0-5.1c-1.8-1.8-4.6-1.8-6.4,0c-2.2,2.2-2.2,5.8,0,8c2.8,2.8,7.2,2.8,10,0c1.5-1.5,2.3-3.3,2.5-5.2"/>
</g>
</svg>
